<svg width="13" height="13" viewBox="0 0 13 13" fill="none" xmlns="http://www.w3.org/2000/svg">
<path d="M6.5 10.7709L3.34928 12.6054C3.21009 12.691 3.06458 12.7277 2.91274 12.7155C2.76089 12.7032 2.62803 12.6543 2.51415 12.5687C2.40027 12.4831 2.3117 12.3761 2.24843 12.2477C2.18516 12.1193 2.17251 11.9756 2.21047 11.8166L3.0456 8.34934L0.255503 6.01951C0.128968 5.90944 0.0498839 5.78408 0.0182502 5.64344C-0.0133835 5.50279 -0.00389338 5.3652 0.0467206 5.23067C0.0973345 5.09614 0.173255 4.98607 0.274483 4.90046C0.375711 4.81485 0.5149 4.75981 0.692049 4.73535L4.37421 4.42349L5.79773 1.15806C5.861 1.0113 5.95906 0.901225 6.09193 0.827844C6.22479 0.754464 6.36081 0.717773 6.5 0.717773C6.63919 0.717773 6.77521 0.754464 6.90808 0.827844C7.04094 0.901225 7.139 1.0113 7.20227 1.15806L8.62579 4.42349L12.308 4.73535C12.4851 4.75981 12.6243 4.81485 12.7255 4.90046C12.8267 4.98607 12.9027 5.09614 12.9533 5.23067C13.0039 5.3652 13.0134 5.50279 12.9818 5.64344C12.9501 5.78408 12.871 5.90944 12.7445 6.01951L9.9544 8.34934L10.7895 11.8166C10.8275 11.9756 10.8148 12.1193 10.7516 12.2477C10.6883 12.3761 10.5997 12.4831 10.4858 12.5687C10.372 12.6543 10.2391 12.7032 10.0873 12.7155C9.93542 12.7277 9.78991 12.691 9.65072 12.6054L6.5 10.7709Z" fill="#FBD03B"/>
</svg>
