<svg width="42" height="42" viewBox="0 0 42 42" fill="none" xmlns="http://www.w3.org/2000/svg">
<path id="local_dining" d="M3.26667 42L0 38.7333L23.9167 14.8167C23.2167 13.1833 23.1194 11.3361 23.625 9.275C24.1306 7.21389 25.2389 5.36667 26.95 3.73333C29.0111 1.67222 31.3056 0.466667 33.8333 0.116667C36.3611 -0.233333 38.4222 0.388889 40.0167 1.98333C41.6111 3.57778 42.2333 5.63889 41.8833 8.16667C41.5333 10.6944 40.3278 12.9889 38.2667 15.05C36.6333 16.7611 34.7861 17.8694 32.725 18.375C30.6639 18.8806 28.8167 18.7833 27.1833 18.0833L24.2667 21L42 38.7333L38.7333 42L21 24.3833L3.26667 42ZM10.15 22.05L3.15 15.05C1.05 12.95 0 10.4417 0 7.525C0 4.60833 1.05 2.1 3.15 0L17.6167 14.5833L10.15 22.05Z" fill="white"/>
</svg>
